<svg xmlns="http://www.w3.org/2000/svg" viewBox="0 0 128 128" width="128" height="128">
  <title>도적</title>
  <circle cx="64" cy="64" r="60" fill="#5b4b8a"/>
  <circle cx="64" cy="64" r="60" fill="none" stroke="#1d1d24" stroke-width="4"/>
  <!-- crossed daggers -->
  <g transform="rotate(45 64 64)">
    <polygon points="64,20 70,32 70,72 58,72 58,32" fill="#cfd6e0" stroke="#1d1d24" stroke-width="3" stroke-linejoin="round"/>
    <rect x="54" y="72" width="20" height="6" rx="2" fill="#8a7550" stroke="#1d1d24" stroke-width="3"/>
    <rect x="60" y="78" width="8" height="18" rx="2" fill="#3a2f2f" stroke="#1d1d24" stroke-width="3"/>
  </g>
  <g transform="rotate(-45 64 64)">
    <polygon points="64,20 70,32 70,72 58,72 58,32" fill="#cfd6e0" stroke="#1d1d24" stroke-width="3" stroke-linejoin="round"/>
    <rect x="54" y="72" width="20" height="6" rx="2" fill="#8a7550" stroke="#1d1d24" stroke-width="3"/>
    <rect x="60" y="78" width="8" height="18" rx="2" fill="#3a2f2f" stroke="#1d1d24" stroke-width="3"/>
  </g>
  <!-- poison drop -->
  <path d="M64 92 C58 100 56 104 56 108 A8 8 0 0 0 72 108 C72 104 70 100 64 92 Z" fill="#7bd389" stroke="#1d1d24" stroke-width="3" stroke-linejoin="round"/>
</svg>
