<svg xmlns="http://www.w3.org/2000/svg" viewBox="0 0 24 24" width="64" height="64" shape-rendering="crispEdges">
  <title>철의 의지</title>
  <path fill="#5b4b8a" d="M6 3h1v1H6ZM17 3h1v1H17ZM8 5h1v1H8ZM9 11h1v1H9ZM14 11h1v1H14ZM8 16h1v1H8Z"/><path fill="#1d1d24" d="M6 4h1v1H6ZM17 4h1v1H17ZM7 5h1v1H7ZM16 5h1v1H16ZM8 6h3v1H8ZM13 6h3v1H13ZM11 7h2v1H11ZM11 9h2v1H11ZM9 10h2v1H9ZM13 10h2v1H13ZM8 11h1v1H8ZM15 11h1v1H15ZM7 12h1v1H7ZM11 12h2v1H11ZM16 12h1v1H16ZM7 13h1v1H7ZM10 13h1v1H10ZM13 13h1v1H13ZM16 13h1v1H16ZM7 14h1v1H7ZM10 14h1v1H10ZM13 14h1v1H13ZM16 14h1v1H16ZM7 15h1v1H7ZM16 15h1v1H16ZM7 16h1v1H7ZM16 16h1v1H16ZM8 17h1v1H8ZM15 17h1v1H15ZM8 18h1v1H8ZM15 18h1v1H15ZM8 19h8v1H8Z"/><path fill="#8fd3ff" d="M7 4h1v1H7ZM16 4h1v1H16ZM8 15h1v1H8ZM10 15h1v1H10ZM13 15h1v1H13Z"/><path fill="#f7f4ec" d="M8 4h8v1H8ZM10 11h1v1H10ZM13 11h1v1H13ZM8 13h1v1H8ZM9 17h1v1H9Z"/><path fill="#8fa3b8" d="M9 5h1v1H9ZM14 5h1v1H14ZM15 13h1v1H15ZM13 16h1v1H13ZM12 17h1v1H12ZM14 17h1v1H14ZM10 18h4v1H10Z"/><path fill="#cfd6e0" d="M10 5h4v1H10ZM11 10h2v1H11ZM9 12h1v1H9ZM13 12h2v1H13ZM11 13h2v1H11ZM14 13h1v1H14ZM8 14h1v1H8ZM11 14h1v1H11ZM14 14h1v1H14ZM9 15h1v1H9ZM14 15h1v1H14ZM9 16h2v1H9ZM14 16h1v1H14ZM10 17h1v1H10ZM13 17h1v1H13ZM9 18h1v1H9Z"/><path fill="#34343f" d="M15 5h1v1H15ZM11 11h2v1H11ZM10 12h1v1H10ZM9 13h1v1H9ZM9 14h1v1H9ZM12 14h1v1H12ZM15 14h1v1H15ZM11 15h2v1H11ZM11 16h2v1H11ZM15 16h1v1H15ZM11 17h1v1H11ZM14 18h1v1H14Z"/><path fill="#3a3450" d="M11 6h2v1H11ZM15 15h1v1H15Z"/><path fill="#a06c3b" d="M8 12h1v1H8ZM15 12h1v1H15Z"/>
</svg>
