<svg xmlns="http://www.w3.org/2000/svg" viewBox="0 0 24 24" width="64" height="64" shape-rendering="crispEdges">
  <title>곡도</title>
  <path fill="#1d1d24" d="M17 4h2v1H17ZM16 5h2v1H16ZM15 6h2v1H15ZM12 7h4v1H12ZM12 8h1v1H12ZM11 9h1v1H11ZM10 10h1v1H10ZM9 11h2v1H9ZM9 12h1v1H9ZM8 13h1v1H8ZM7 14h1v1H7ZM6 15h2v1H6ZM5 16h2v1H5ZM5 17h3v1H5ZM4 18h2v1H4ZM7 18h1v1H7ZM3 19h2v1H3ZM2 20h2v1H2Z"/><path fill="#f7f4ec" d="M13 8h1v1H13Z"/><path fill="#cfd6e0" d="M12 9h1v1H12ZM10 12h1v1H10Z"/><path fill="#8fa3b8" d="M13 9h1v1H13ZM12 10h1v1H12ZM11 11h1v1H11Z"/><path fill="#8fd3ff" d="M11 10h1v1H11ZM9 13h1v1H9Z"/><path fill="#5b4b8a" d="M8 14h1v1H8ZM7 16h1v1H7Z"/>
</svg>
