<svg xmlns="http://www.w3.org/2000/svg" viewBox="0 0 24 24" width="64" height="64" shape-rendering="crispEdges">
  <title>재생의 펜던트</title>
  <path fill="#1d1d24" d="M5 3h1v1H5ZM18 3h1v1H18ZM6 4h1v1H6ZM17 4h1v1H17ZM7 5h1v1H7ZM16 5h1v1H16ZM8 6h1v1H8ZM15 6h1v1H15ZM9 7h6v1H9ZM12 9h1v1H12ZM9 10h7v1H9ZM8 11h2v1H8ZM16 11h1v1H16ZM7 12h2v1H7ZM17 12h1v1H17ZM7 13h1v1H7ZM13 13h1v1H13ZM17 13h1v1H17ZM6 14h1v1H6ZM17 14h1v1H17ZM6 15h1v1H6ZM17 15h1v1H17ZM6 16h1v1H6ZM17 16h1v1H17ZM7 17h1v1H7ZM16 17h1v1H16ZM7 18h1v1H7ZM15 18h2v1H15ZM8 19h1v1H8ZM14 19h2v1H14ZM9 20h5v1H9Z"/><path fill="#7bd389" d="M6 3h1v1H6ZM17 3h1v1H17ZM8 4h8v1H8ZM9 5h6v1H9ZM9 6h1v1H9ZM15 11h1v1H15ZM10 12h3v1H10ZM16 12h1v1H16ZM9 13h3v1H9ZM14 13h1v1H14ZM7 14h4v1H7ZM14 14h2v1H14ZM8 15h2v1H8ZM12 15h3v1H12ZM8 16h1v1H8ZM11 16h2v1H11ZM14 16h2v1H14ZM8 17h1v1H8ZM10 17h1v1H10ZM12 17h3v1H12ZM8 18h6v1H8ZM9 19h1v1H9Z"/><path fill="#fff5cc" d="M7 3h10v1H7ZM11 11h4v1H11ZM9 12h1v1H9ZM8 13h1v1H8ZM13 14h1v1H13Z"/><path fill="#a06c3b" d="M7 4h1v1H7ZM10 11h1v1H10ZM7 15h1v1H7ZM7 16h1v1H7Z"/><path fill="#5e4f36" d="M16 4h1v1H16ZM10 6h1v1H10ZM13 6h1v1H13ZM12 13h1v1H12ZM16 13h1v1H16ZM14 18h1v1H14Z"/><path fill="#8a7550" d="M8 5h1v1H8ZM14 12h1v1H14ZM15 13h1v1H15Z"/><path fill="#6b4b2a" d="M15 5h1v1H15ZM10 19h1v1H10ZM12 19h1v1H12Z"/><path fill="#2f4a37" d="M11 6h2v1H11ZM13 12h1v1H13ZM15 12h1v1H15ZM11 14h2v1H11ZM16 14h1v1H16ZM11 15h1v1H11ZM15 15h2v1H15ZM9 16h2v1H9ZM13 16h1v1H13ZM9 17h1v1H9ZM11 17h1v1H11ZM15 17h1v1H15ZM11 19h1v1H11Z"/><path fill="#34343f" d="M14 6h1v1H14ZM10 15h1v1H10ZM16 16h1v1H16ZM13 19h1v1H13Z"/>
</svg>
