<svg xmlns="http://www.w3.org/2000/svg" viewBox="0 0 24 24" width="64" height="64" shape-rendering="crispEdges">
  <title>얼음 결박</title>
  <path fill="#1d1d24" d="M6 0h12v1H6ZM3 1h18v1H3ZM2 2h2v1H2ZM20 2h2v1H20ZM1 3h2v1H1ZM21 3h2v1H21ZM1 4h1v1H1ZM22 4h1v1H22ZM1 5h1v1H1ZM22 5h1v1H22ZM0 6h1v1H0ZM23 6h1v1H23ZM0 7h1v1H0ZM23 7h1v1H23ZM0 8h1v1H0ZM23 8h1v1H23ZM0 9h1v1H0ZM23 9h1v1H23ZM0 10h1v1H0ZM23 10h1v1H23ZM0 11h1v1H0ZM23 11h1v1H23ZM0 12h1v1H0ZM23 12h1v1H23ZM0 13h1v1H0ZM23 13h1v1H23ZM0 14h1v1H0ZM23 14h1v1H23ZM0 15h1v1H0ZM23 15h1v1H23ZM0 16h1v1H0ZM23 16h1v1H23ZM0 17h1v1H0ZM23 17h1v1H23ZM1 18h1v1H1ZM22 18h1v1H22ZM1 19h1v1H1ZM22 19h1v1H22ZM1 20h1v1H1ZM21 20h2v1H21ZM2 21h1v1H2ZM21 21h1v1H21ZM3 22h4v1H3ZM17 22h4v1H17ZM6 23h12v1H6Z"/><path fill="#8fd3ff" d="M4 2h2v1H4ZM18 2h2v1H18ZM2 4h1v1H2ZM11 4h2v1H11ZM2 5h1v1H2ZM11 5h2v1H11ZM11 6h2v1H11ZM11 7h2v1H11ZM5 8h2v1H5ZM11 8h2v1H11ZM17 8h2v1H17ZM6 9h3v1H6ZM11 9h2v1H11ZM15 9h3v1H15ZM8 10h8v1H8ZM9 11h6v1H9ZM9 12h6v1H9ZM8 13h8v1H8ZM6 14h3v1H6ZM10 14h3v1H10ZM16 14h1v1H16ZM5 15h3v1H5ZM12 15h1v1H12ZM17 15h2v1H17ZM11 18h2v1H11ZM2 19h1v1H2ZM11 19h1v1H11Z"/><path fill="#2f6fd6" d="M6 2h12v1H6ZM3 3h18v1H3ZM3 4h8v1H3ZM13 4h8v1H13ZM3 5h8v1H3ZM13 5h8v1H13ZM2 6h9v1H2ZM13 6h9v1H13ZM2 7h9v1H2ZM13 7h8v1H13ZM2 8h3v1H2ZM7 8h4v1H7ZM13 8h4v1H13ZM19 8h3v1H19ZM2 9h4v1H2ZM9 9h2v1H9ZM13 9h2v1H13ZM18 9h4v1H18ZM2 10h6v1H2ZM16 10h4v1H16ZM21 10h1v1H21ZM2 11h7v1H2ZM15 11h3v1H15ZM19 11h3v1H19ZM2 12h7v1H2ZM15 12h1v1H15ZM17 12h4v1H17ZM2 13h6v1H2ZM16 13h3v1H16ZM20 13h2v1H20ZM2 14h4v1H2ZM13 14h1v1H13ZM17 14h5v1H17ZM2 15h3v1H2ZM19 15h1v1H19ZM21 15h1v1H21ZM2 16h4v1H2ZM15 16h3v1H15ZM19 16h3v1H19ZM2 17h4v1H2ZM9 17h2v1H9ZM14 17h2v1H14ZM17 17h4v1H17ZM2 18h4v1H2ZM8 18h3v1H8ZM13 18h1v1H13ZM15 18h4v1H15ZM20 18h1v1H20ZM3 19h8v1H3ZM12 19h5v1H12ZM18 19h3v1H18ZM3 20h7v1H3ZM11 20h4v1H11ZM16 20h4v1H16ZM6 21h2v1H6ZM9 21h4v1H9ZM14 21h4v1H14Z"/><path fill="#3a3450" d="M21 4h1v1H21ZM21 5h1v1H21ZM21 7h1v1H21ZM20 10h1v1H20ZM18 11h1v1H18ZM16 12h1v1H16ZM21 12h1v1H21ZM19 13h1v1H19ZM20 15h1v1H20ZM18 16h1v1H18ZM16 17h1v1H16ZM21 17h1v1H21ZM14 18h1v1H14ZM19 18h1v1H19ZM21 18h1v1H21ZM17 19h1v1H17ZM21 19h1v1H21ZM10 20h1v1H10ZM15 20h1v1H15ZM20 20h1v1H20ZM4 21h2v1H4ZM8 21h1v1H8ZM13 21h1v1H13ZM18 21h2v1H18Z"/><path fill="#5b4b8a" d="M1 6h1v1H1ZM22 6h1v1H22ZM1 7h1v1H1ZM1 8h1v1H1ZM1 9h1v1H1ZM1 10h1v1H1ZM1 11h1v1H1ZM1 12h1v1H1ZM1 13h1v1H1ZM1 14h1v1H1ZM1 15h1v1H1ZM1 16h1v1H1ZM1 17h1v1H1ZM2 20h1v1H2ZM3 21h1v1H3Z"/><path fill="#34343f" d="M22 7h1v1H22ZM22 8h1v1H22ZM22 9h1v1H22ZM22 10h1v1H22ZM22 11h1v1H22ZM22 12h1v1H22ZM22 13h1v1H22ZM22 14h1v1H22ZM22 15h1v1H22ZM22 16h1v1H22ZM22 17h1v1H22ZM20 21h1v1H20ZM7 22h10v1H7Z"/><path fill="#cfd6e0" d="M9 14h1v1H9ZM14 14h2v1H14ZM8 15h4v1H8ZM13 15h2v1H13ZM7 16h2v1H7ZM10 16h3v1H10ZM14 16h1v1H14ZM6 17h2v1H6ZM12 17h1v1H12Z"/><path fill="#8fa3b8" d="M15 15h2v1H15ZM6 16h1v1H6ZM9 16h1v1H9ZM13 16h1v1H13ZM8 17h1v1H8ZM11 17h1v1H11ZM13 17h1v1H13ZM6 18h2v1H6Z"/>
</svg>
